<?xml version="1.0" encoding="UTF-8"?><svg id="a" xmlns="http://www.w3.org/2000/svg" viewBox="0 0 200.64 200.64"><defs><style>.b{fill:#0d0b0b;}</style></defs><path class="b" d="M50.1,200.64c-2.28-.84-2.95-2.56-2.84-4.87,.12-2.55,0-5.11,.05-7.67,.02-.77-.22-.91-.94-.91-5.15,.03-10.31,.02-15.46,.02-8.53,0-16.49-7.6-16.89-16.11-.1-2.23,1.24-3.87,3.25-3.96,1.95-.08,3.38,1.36,3.52,3.57,.33,5.2,5.22,9.79,10.43,9.79,46.26,0,92.53,0,138.79,0,5.51,0,10.5-4.98,10.5-10.47,0-46.26-.02-92.53,.03-138.79,0-5.42-5.5-10.51-10.39-10.5-46.34,.07-92.69,.07-139.03,0-4.98,0-10.4,5.29-10.38,10.62,.1,41.71,.05,83.42,.07,125.13,0,1.54-.32,2.87-1.75,3.67-2.18,1.22-4.81-.22-5.01-2.74-.07-.87-.07-1.76,0-2.63,.06-.78-.23-.91-.94-.9-2.92,.04-5.83,.02-8.75,.01-2.14,0-3.59-1.34-3.61-3.3-.02-2.01,1.45-3.4,3.64-3.41,2.88-.01,5.75-.02,8.63,.01,.73,0,1.04-.11,1.03-.95-.05-3.79-.05-7.59,0-11.39,0-.79-.27-.9-.96-.89-3,.03-5.99,.04-8.99,0-1.61-.02-2.96-1.14-3.29-2.63-.34-1.53,.41-3.07,1.83-3.8,.56-.29,1.15-.29,1.75-.29,2.88,0,5.75-.03,8.63,.01,.76,.01,1.04-.15,1.03-.98-.05-3.79-.04-7.59,0-11.39,0-.75-.23-.94-.95-.93-2.88,.04-5.75,.02-8.63,.01-2.25,0-3.7-1.32-3.71-3.32-.01-2.04,1.49-3.42,3.76-3.43,2.84,0,5.67-.02,8.51,.01,.72,0,1.04-.1,1.03-.95-.05-3.79-.05-7.59,0-11.39,.01-.87-.34-.94-1.04-.93-2.96,.03-5.91,.02-8.87,0-1.95,0-3.36-1.37-3.4-3.26-.04-1.93,1.39-3.42,3.36-3.44,3-.03,5.99-.03,8.99,0,.7,0,.96-.13,.95-.9-.04-3.79-.05-7.59,0-11.39,.01-.82-.27-.97-1.01-.96-2.96,.04-5.91,.03-8.87,0-1.69-.01-3.05-1.12-3.37-2.68-.32-1.54,.45-3.07,1.88-3.78,.56-.28,1.16-.27,1.76-.27,2.84,0,5.67-.03,8.51,.01,.79,.01,1.11-.14,1.1-1.03-.05-3.75-.05-7.51,0-11.27,0-.83-.28-.98-1.03-.97-2.92,.04-5.83,.04-8.75,0-1.72-.02-2.9-.88-3.37-2.35-.44-1.39,.02-2.88,1.19-3.74,.74-.54,1.59-.69,2.49-.69,2.68,0,5.36-.06,8.03,.03,1.11,.04,1.48-.18,1.46-1.39-.08-4.99-.04-9.99-.03-14.98,.02-8.91,8.02-16.91,16.93-16.93,5.07,0,10.15-.02,15.22,.02,.86,0,1.17-.15,1.14-1.09-.07-2.83-.04-5.67-.02-8.51,.01-2.01,1.16-3.44,2.89-3.68,2.15-.3,3.85,1.21,3.88,3.51,.04,2.92,.03,5.83,0,8.75-.01,.76,.17,1.03,.98,1.02,3.76-.04,7.51-.05,11.27,0,.9,.01,1.03-.33,1.02-1.11-.04-2.8-.02-5.59-.01-8.39,0-2.36,1.28-3.8,3.34-3.8,2.04,0,3.39,1.5,3.39,3.79,0,2.84,.03,5.67-.02,8.51-.01,.76,.16,1.01,.97,1,3.75-.05,7.51-.05,11.27,0,.89,.01,1.03-.29,1.02-1.08-.05-2.84-.02-5.67-.02-8.51,0-2.22,1.34-3.66,3.33-3.73,1.83-.06,3.51,1.7,3.41,3.66-.16,2.87,0,5.75-.06,8.63-.02,.87,.26,1.03,1.07,1.02,3.72-.04,7.43-.04,11.15,0,.82,0,1.09-.18,1.07-1.04-.06-2.84-.03-5.67-.02-8.51,0-2.27,1.39-3.77,3.43-3.75,2.01,.02,3.31,1.47,3.32,3.72,0,2.88,.03,5.75-.01,8.63,0,.74,.2,.95,.94,.95,3.8-.03,7.59-.04,11.39,0,.84,.01,.98-.3,.97-1.04-.04-2.88-.03-5.75-.01-8.63,.01-2.23,1.35-3.66,3.38-3.64,1.99,.02,3.34,1.51,3.35,3.72,0,2.88,.02,5.75-.01,8.63,0,.7,.13,.96,.9,.95,3.79-.04,7.59-.05,11.39,0,.86,.01,.95-.33,.95-1.04-.03-2.96-.03-5.91,0-8.87,.01-1.55,.87-2.72,2.24-3.2,1.39-.48,2.83-.07,3.77,1.08,.53,.65,.71,1.4,.7,2.23-.02,2.92,.02,5.83-.03,8.75-.01,.82,.18,1.07,1.03,1.06,5.07-.04,10.15,.04,15.22-.03,9.16-.13,17.33,8.54,17.1,17.14-.14,5.03,0,10.07-.04,15.1,0,.81,.15,1.09,1.02,1.07,2.52-.07,5.03-.02,7.55-.02,3.12,0,3.75,.39,4.87,3.06v.96c-.86,2.28-2.58,2.91-4.88,2.8-2.54-.12-5.1,0-7.65-.05-.75-.01-.92,.2-.92,.93,.04,3.79,.04,7.57,0,11.36,0,.79,.21,1,.99,.99,2.95-.05,5.9,0,8.85-.02,1.01,0,1.84,.33,2.58,1.02,.57,.54,.62,1.31,1.03,1.91v.96c-.82,2.27-2.47,3.01-4.81,2.88-2.58-.14-5.18,0-7.77-.05-.67,0-.87,.16-.87,.85,.03,3.83,.04,7.66,0,11.48,0,.74,.18,.93,.92,.92,2.59-.05,5.19,.09,7.77-.05,2.34-.13,3.97,.62,4.75,2.9v.96c-.75,2.31-2.37,3.05-4.72,2.91-2.58-.15-5.18-.01-7.77-.05-.68,0-.96,.09-.95,.89,.05,3.83,.05,7.66,0,11.48,0,.77,.23,.91,.94,.9,2.55-.04,5.1-.02,7.66-.02,3.14,0,3.72,.37,4.85,3.06v.96c-.87,2.26-2.58,2.9-4.89,2.77-2.5-.14-5.02-.01-7.53-.05-.72-.01-1.04,.1-1.03,.95,.05,3.79,.04,7.57,0,11.36,0,.78,.2,1.01,.99,.99,2.99-.05,5.98-.04,8.97,0,1.73,.02,2.81,.91,3.25,2.58,.04,.16,.05,.31,.25,.34v.96c-.82,2.27-2.48,3.01-4.81,2.88-2.58-.14-5.18,0-7.77-.05-.67,0-.87,.16-.86,.85,.03,3.82,.04,7.65,0,11.48,0,.76,.21,.93,.94,.91,2.59-.05,5.18,.08,7.77-.05,2.32-.11,3.99,.59,4.75,2.91v.96c-.74,2.34-2.4,3.04-4.75,2.91-2.55-.14-5.11,0-7.66-.05-.84-.02-1.05,.2-1.04,1.04,.04,5.11,.01,10.22,.03,15.33,0,1-.08,1.99-.26,2.97-1.4,7.69-8.92,13.99-16.71,13.99-5.15,0-10.3,.02-15.45-.02-.74,0-.94,.18-.92,.92,.05,2.59-.09,5.2,.05,7.78,.13,2.34-.57,4-2.91,4.75h-.96c-2.33-.76-3.03-2.43-2.91-4.76,.13-2.55,0-5.11,.04-7.67,.01-.73-.11-1.03-.95-1.02-3.79,.05-7.59,.05-11.39,0-.78,0-.91,.24-.9,.94,.04,2.92,0,5.83,.02,8.75,0,1.19-.42,2.14-1.33,2.94-.59,.52-1.4,.41-2.01,.82h-.72c-2.25-.9-2.85-2.63-2.72-4.92,.15-2.5,0-5.02,.05-7.53,.02-.78-.2-1-.99-.99-3.79,.04-7.57,.05-11.36,0-.84-.01-.97,.29-.96,1.02,.03,2.91,.03,5.82,0,8.73-.01,2.05-.96,3.12-2.98,3.48-.09,.02-.15,.14-.23,.22h-.72c-2.25-.85-2.98-2.51-2.85-4.85,.14-2.5,0-5.02,.05-7.54,.02-.81-.15-1.08-1.02-1.07-3.75,.05-7.5,.05-11.25,0-.88-.01-1.03,.27-1.01,1.07,.05,2.99,.03,5.98,.02,8.97,0,1.43-.86,2.61-2.18,3.11-.23,.09-.59-.1-.7,.29h-.96c-2.3-.77-3.02-2.42-2.9-4.75,.14-2.62,.01-5.26,.05-7.89,0-.62-.16-.8-.79-.8-3.87,.03-7.73,.03-11.6,0-.68,0-.86,.19-.85,.86,.04,2.87,.02,5.74,.01,8.61,0,.47-.02,.93-.15,1.41-.44,1.66-1.76,2.16-3.18,2.56h-.72c-2.25-.9-2.85-2.62-2.72-4.92,.15-2.5,0-5.02,.05-7.53,.01-.78-.19-1.01-.98-1-3.79,.04-7.57,.04-11.36,0-.72,0-.95,.15-.93,.91,.05,2.91,.03,5.82,.02,8.73,0,1.7-.8,2.91-2.08,3.46-.39,.17-.9-.14-1.17,.35h-.72Z"/><path class="b" d="M100.67,100.93c10.27,0,20.53,0,30.8,0,2.09,0,3.29-1.65,2.6-3.51-.36-.96-1.04-1.48-2.06-1.55-.4-.03-.8-.01-1.2-.01-15.94,0-31.88,0-47.82,0-1.72,0-2.63-.55-3.02-1.8-.56-1.82,.58-3.43,2.49-3.43,6.83,0,13.66,0,20.49,0,9.59,0,19.18-.04,28.76-.01,3.96,0,6.8,2.39,7.62,6.25,.85,4.02-1.59,7.98-5.53,9.07-2.08,.58-4.2,.46-6.31,.42-.92-.02-1.17,.25-1.11,1.14,.08,1.23,.06,2.48,0,3.71-.03,.69,.2,.92,.88,1.1,6.75,1.79,11.14,6.06,13.15,12.75,.51,1.7,.56,3.46,.56,5.22,0,4.23-.02,8.47,0,12.7,.02,4.63,3.2,8.27,7.73,8.9,4.4,.62,8.27-2.73,8.29-7.17,0-.08,0-.16,0-.24,.21-2.27-.03-3.95-2.49-5.37-3.67-2.12-4.72-6.98-3.18-11.04,1.47-3.86,5.53-6.37,9.79-6.03,4.13,.32,7.67,3.44,8.55,7.52,.94,4.36-1.15,8.75-5.18,10.64-.84,.39-1.03,.86-1.04,1.72-.01,2.26,.16,4.55-.54,6.77-2.82,8.82-12.9,12.51-20.91,7.59-4.91-3.01-7.37-7.5-7.47-13.23-.07-4.51,.05-9.03-.03-13.54-.09-4.82-2.53-8.17-6.78-10.27-1.18-.59-1.31-.48-1.31,.84,0,13.7,0,27.41,0,41.11,0,1.13-.17,2.16-1.06,2.93-.94,.81-2.02,1.09-3.22,.67-1.35-.48-2.03-1.48-2.21-2.86-.05-.35-.02-.72-.02-1.08,0-17.78,0-35.56,.02-53.33,0-1-.17-1.33-1.27-1.32-12.06,.05-24.13,.04-36.19,0-.99,0-1.24,.22-1.24,1.23,.03,18.02,.02,36.03,.03,54.05,0,1.51-.6,2.63-1.99,3.23-1.21,.52-2.36,.3-3.35-.54-.88-.75-1.14-1.75-1.14-2.89,.02-10.51,.01-21.01,.01-31.52,0-3.28-.03-6.55,.02-9.83,.02-.97-.17-1.16-1.1-.78-4.05,1.63-7.03,5.87-7.06,10.25-.04,4.67,.02,9.35-.02,14.02-.05,7.12-5.1,13.23-12.07,14.69-7.71,1.61-15.1-3.13-16.55-10.73-.32-1.67-.35-3.41-.32-5.12,.01-1.01-.29-1.5-1.18-1.98-3.86-2.06-5.61-5.37-5.11-9.69,.46-3.96,2.77-6.63,6.53-7.93,4.65-1.61,9.82,.73,11.83,5.28,1.98,4.49,.24,9.86-4.11,12.17-1.18,.62-1.59,1.28-1.48,2.54,.12,1.27-.1,2.56,.24,3.81,1.31,4.86,6.74,7.02,11.22,4.42,2.95-1.71,4.54-4.29,4.55-7.74,.01-4.27,0-8.55,0-12.82,0-8.95,5.19-15.72,13.84-18.02,.57-.15,.79-.3,.78-.9-.04-1.4-.06-2.8,0-4.19,.03-.73-.26-.83-.9-.83-2.19,0-4.39,.17-6.54-.44-3.81-1.08-5.95-4.44-5.54-8.77,.32-3.37,3.32-6.26,6.9-6.5,1.04-.07,.76-.69,.76-1.21,.01-11.59,.02-23.17,0-34.76,0-8.27,2.72-15.5,8.39-21.49,7.11-7.51,15.93-11.01,26.22-9.66,13.72,1.8,22.47,9.73,26.57,22.86,.8,2.56,1.06,5.24,1.07,7.92,.03,9.35,.02,18.7,0,28.04,0,2.32-1.3,3.45-3.37,3.01-1.11-.24-1.72-.94-1.85-2.05-.05-.43-.04-.88-.04-1.32,0-9.11,.02-18.22,0-27.33-.03-7.24-2.56-13.47-7.66-18.63-12.67-12.83-34.85-8.6-41.91,7.98-1.44,3.38-2.18,6.88-2.17,10.56,.03,12.22,.01,24.45,.01,36.67,0,.4,0,.8,0,1.2-.07,2.62-.87,3.4-3.48,3.4-.52,0-1.04,0-1.56,0-1.75,.02-2.69,.88-2.71,2.48-.02,1.64,.96,2.59,2.74,2.59,10.31,0,20.61,0,30.92,0Zm59.64,33.83c1.78,0,3.18-1.4,3.16-3.18-.01-1.73-1.38-3.1-3.11-3.13-1.78-.02-3.21,1.36-3.23,3.13-.01,1.77,1.39,3.18,3.17,3.18Zm-119.42-6.08c-1.76,.02-3.07,1.34-3.08,3.1,0,1.79,1.4,3.2,3.16,3.17,1.69-.02,3.09-1.43,3.1-3.14,.01-1.78-1.38-3.16-3.19-3.14Z"/><path class="b" d="M89.86,144.85c0-9.78,.01-19.57-.01-29.35,0-1.55,.52-2.74,1.96-3.39,2.04-.93,4.36,.49,4.53,2.73,.01,.16,0,.32,0,.48,0,19.73,0,39.46,0,59.19,0,2.18-1.32,3.49-3.39,3.44-1.72-.05-3.02-1.27-3.07-3.02-.06-2.08-.02-4.15-.02-6.23,0-7.95,0-15.9,0-23.84Z"/><path class="b" d="M104.94,124.96c0-3.19,0-6.39,0-9.58,0-2.11,1.31-3.58,3.17-3.61,1.8-.03,3.29,1.5,3.29,3.54,.03,6.47,.03,12.94,0,19.41-.01,2.1-1.39,3.44-3.35,3.41-1.91-.03-3.11-1.34-3.12-3.46-.01-3.23,0-6.47,0-9.7Z"/><path class="b" d="M104.94,164.84c0-3.16,0-6.31,0-9.47,0-2.14,1.28-3.54,3.18-3.56,1.87-.02,3.28,1.43,3.29,3.52,.03,6.39,.03,12.78,0,19.17,0,2.15-1.31,3.44-3.3,3.43-2.01-.01-3.16-1.27-3.16-3.51-.01-3.19,0-6.39,0-9.58Z"/><path class="b" d="M113.57,124.21c0-3.35,0-6.71,0-10.06,0-1.86,.95-2.89,2.59-2.88,1.62,0,2.63,1.08,2.64,2.89,.01,6.75,0,13.49,0,20.24,0,1.12-.34,2.07-1.39,2.58-1,.49-2,.41-2.93-.25-.77-.55-.93-1.34-.93-2.22,.01-3.43,0-6.87,0-10.3Z"/><path class="b" d="M82.46,124.25c0-3.39,0-6.79,0-10.18,0-1.72,.98-2.78,2.57-2.8,1.63-.03,2.67,1.06,2.67,2.84,0,6.79,0,13.58,0,20.37,0,1.69-1.03,2.79-2.59,2.82-1.57,.03-2.65-1.12-2.65-2.86,0-3.39,0-6.79,0-10.18Z"/><path class="b" d="M93.77,66.99c0,1.16,.03,2.31,0,3.47-.07,2.21-1.92,4.01-4.09,4.02-2.09,0-4.03-1.74-4.11-3.89-.09-2.43-.09-4.87,0-7.29,.08-2.25,1.97-3.89,4.22-3.84,2.23,.05,3.94,1.77,3.99,4.06,.03,1.16,0,2.31,0,3.47Z"/><path class="b" d="M115.59,67c0,1.2,.06,2.4-.01,3.59-.13,2.17-1.97,3.89-4.09,3.9-2.09,0-4.03-1.75-4.11-3.89-.09-2.43-.09-4.87,0-7.29,.08-2.21,1.92-3.84,4.1-3.84,2.2,0,3.96,1.61,4.09,3.83,.07,1.23,.01,2.47,.01,3.71Z"/><path class="b" d="M104.94,144.87c.05-.68-.11-1.52,.29-2.32,.63-1.26,1.77-1.94,3.19-1.84,1.33,.09,2.48,1.02,2.82,2.36,.3,1.21,.3,2.45,.03,3.67-.36,1.62-1.85,2.71-3.4,2.55-1.68-.17-2.86-1.46-2.92-3.21-.01-.36,0-.72,0-1.22Z"/><path class="b" d="M40.85,163.82c.02,1.85-1.56,3.46-3.39,3.45-1.79,0-3.35-1.54-3.38-3.35-.03-1.85,1.42-3.35,3.27-3.39,1.94-.04,3.48,1.41,3.5,3.29Z"/><path class="b" d="M37.5,40.73c-1.9,.01-3.43-1.51-3.42-3.39,0-1.86,1.48-3.31,3.35-3.32,1.94,0,3.43,1.47,3.42,3.37-.01,1.83-1.52,3.33-3.35,3.34Z"/><path class="b" d="M167.32,163.85c0,1.89-1.54,3.46-3.39,3.43-1.81-.03-3.32-1.55-3.34-3.37-.02-1.94,1.44-3.38,3.39-3.37,1.89,.01,3.33,1.43,3.34,3.31Z"/><path class="b" d="M167.32,37.32c.01,1.92-1.47,3.42-3.37,3.41-1.84,0-3.33-1.49-3.36-3.32-.02-1.88,1.4-3.36,3.26-3.39,1.96-.03,3.46,1.39,3.47,3.3Z"/></svg>